<svg id="Layer_1" fill="#a8acb6" enable-background="new 0 0 509.81 509.81" height="512" viewBox="0 0 509.81 509.81" width="512" xmlns="http://www.w3.org/2000/svg"><g id="XMLID_2403_"><path id="XMLID_2404_" d="m329.905 44.81h-45v-15c-1.476-39.762-58.538-39.732-60 0v15h-45v60h150z"/><path id="XMLID_2406_" d="m314.905 209.81h30v30h-30z"/><path id="XMLID_2410_" d="m359.905 74.81v60h-210v-60h-75v435h360v-435zm-225 105h120v30h-120zm120 60v30h-30v-30zm-120 0h60v30h-60zm0 60h180v30h-180zm30 150h-30v-30h30zm135 0h-105v-30h105zm75 0h-45v-30h45zm0-60h-240v-30h240zm0-60h-30v-30h30zm0-60h-90v-90h90z"/></g></svg>